<svg width="340" height="340" viewBox="0 0 340 340" fill="none" xmlns="http://www.w3.org/2000/svg">
<g clip-path="url(#clip0_210_8919)">
<mask id="mask0_210_8919" style="mask-type:luminance" maskUnits="userSpaceOnUse" x="0" y="0" width="340" height="340">
<path d="M0 0H340V340H0V0Z" fill="white"/>
</mask>
<g mask="url(#mask0_210_8919)">
<path d="M170.1 8.8999C258.843 8.8999 331.1 81.1568 331.1 169.9C331.1 258.744 258.842 331 170.1 331C81.2566 330.999 9 258.743 9 169.9C9 81.1581 81.2555 8.90012 170.1 8.8999Z" fill="white" stroke="black" stroke-width="6"/>
<path fill-rule="evenodd" clip-rule="evenodd" d="M296.6 169.9C296.6 239.8 240 296.5 170.1 296.5C100.2 296.5 43.5 239.8 43.5 169.9C43.5 99.9999 100.2 43.3999 170.1 43.3999C240 43.3999 296.6 99.9999 296.6 169.9ZM309.6 137.9C308.3 137.9 307.1 137 306.7 135.6L306.5 134.7C306.1 133.1 307.1 131.5 308.7 131C310.3 130.6 311.9 131.6 312.3 133.2L312.6 134.2C313 135.8 312 137.4 310.4 137.8C310.133 137.867 309.867 137.9 309.6 137.9Z" fill="black"/>
<path fill-rule="evenodd" clip-rule="evenodd" d="M312.1 149.8C310.6 149.8 309.4 148.7 309.1 147.2L308.9 145.9C308.6 144.2 309.7 142.7 311.3 142.4C313 142.1 314.5 143.2 314.8 144.8L315 146.3C315.3 147.9 314.2 149.5 312.6 149.7C312.4 149.767 312.234 149.8 312.1 149.8ZM313.5 161.8C312 161.8 310.6 160.6 310.5 159L310.4 157.6C310.3 156 311.5 154.5 313.1 154.4C314.8 154.2 316.2 155.4 316.4 157.1L316.5 158.5C316.6 160.2 315.4 161.6 313.7 161.8C313.634 161.8 313.567 161.8 313.5 161.8ZM313.9 173.9C312.3 173.8 310.9 172.5 310.9 170.8V169.9V169.5C310.9 167.8 312.3 166.5 313.9 166.4C315.6 166.4 316.9 167.8 316.9 169.4V169.9V170.9C316.9 172.5 315.6 173.9 313.9 173.9ZM313.4 185.9C313.267 185.9 313.167 185.9 313.1 185.9C311.4 185.8 310.2 184.3 310.4 182.7L310.5 181.3C310.6 179.6 312.1 178.4 313.7 178.5C315.4 178.7 316.6 180.1 316.5 181.8L316.3 183.2C316.2 184.8 314.9 185.9 313.4 185.9ZM311.8 197.9C311.6 197.9 311.434 197.9 311.3 197.9C309.6 197.6 308.5 196 308.8 194.4L309.1 193C309.3 191.4 310.9 190.3 312.5 190.6C314.1 190.8 315.2 192.4 315 194L314.7 195.5C314.5 196.9 313.2 197.9 311.8 197.9ZM309.3 209.3C309.034 209.3 308.767 209.267 308.5 209.2C306.9 208.8 306 207.2 306.4 205.6L306.6 204.6C307 203 308.7 202.1 310.3 202.5C311.9 202.9 312.9 204.5 312.4 206.1L312.2 207.1C311.8 208.4 310.6 209.3 309.3 209.3ZM309.4 136.9C308.1 136.9 306.9 136 306.5 134.7C299.4 107.2 284.3 82.6999 262.8 63.7999C261.5 62.6999 261.4 60.8999 262.5 59.5999C263.6 58.3999 265.5 58.1999 266.7 59.2999C289.1 78.9999 304.9 104.5 312.3 133.2C312.7 134.8 311.8 136.4 310.2 136.8C309.934 136.867 309.667 136.9 309.4 136.9ZM225 39.8999C224.6 39.8999 224.2 39.8332 223.8 39.6999L222.9 39.2999C221.4 38.6999 220.6 36.8999 221.3 35.3999C221.9 33.8999 223.6 33.0999 225.2 33.6999L226.1 34.0999C227.6 34.7999 228.4 36.4999 227.7 37.9999C227.3 39.1999 226.1 39.8999 225 39.8999Z" fill="black"/>
<path fill-rule="evenodd" clip-rule="evenodd" d="M239.3 46.7999C238.833 46.7999 238.366 46.6666 237.9 46.3999C237.366 46.1333 236.833 45.8666 236.3 45.5999C234.8 44.7999 234.3 42.9999 235 41.4999C235.8 39.9999 237.6 39.4999 239.1 40.2999C239.7 40.5666 240.266 40.8666 240.8 41.1999C242.2 41.9999 242.8 43.7999 242 45.2999C241.4 46.1999 240.4 46.7999 239.3 46.7999ZM252.9 55.2999C252.3 55.2999 251.7 55.0999 251.1 54.6999C250.633 54.3666 250.133 54.0333 249.6 53.6999C248.3 52.6999 247.9 50.8999 248.9 49.4999C249.8 48.0999 251.7 47.7999 253 48.6999C253.533 49.0999 254.066 49.4666 254.6 49.7999C255.9 50.7999 256.3 52.5999 255.3 53.9999C254.7 54.7999 253.8 55.2999 252.9 55.2999ZM264.7 64.5999C264 64.5999 263.3 64.2999 262.8 63.7999L262 63.1999C260.8 62.0999 260.6 60.1999 261.7 58.9999C262.8 57.6999 264.7 57.5999 265.9 58.6999L266.7 59.2999C267.9 60.3999 268.1 62.2999 267 63.5999C266.4 64.1999 265.6 64.5999 264.7 64.5999ZM224 39.4999C223.666 39.4999 223.3 39.4333 222.9 39.2999C211.6 34.6999 199.6 31.5999 187.5 30.0999C185.8 29.8999 184.7 28.3999 184.9 26.7999C185.1 25.0999 186.6 23.9999 188.2 24.1999C200.9 25.6999 213.3 28.9999 225.2 33.6999C226.7 34.3999 227.4 36.0999 226.8 37.5999C226.3 38.7999 225.2 39.4999 224 39.4999ZM115.6 39.6999C114.4 39.6999 113.3 38.9999 112.8 37.8999C112.2 36.2999 112.9 34.5999 114.5 33.9999C126.3 29.0999 138.9 25.7999 151.6 24.1999C153.3 23.9999 154.8 25.1999 155 26.7999C155.2 28.4999 154 29.9999 152.4 30.1999C140.1 31.6999 128.1 34.7999 116.7 39.4999C116.366 39.6333 116 39.6999 115.6 39.6999ZM75.4996 64.4999C74.5996 64.4999 73.7996 64.1999 73.1996 63.4999C72.0996 62.2999 72.1996 60.3999 73.4996 59.2999L74.1996 58.5999C75.4996 57.4999 77.3996 57.6999 78.4996 58.8999C79.5996 60.1999 79.3996 62.0999 78.1996 63.1999L77.3996 63.7999C76.8996 64.2999 76.1996 64.4999 75.4996 64.4999Z" fill="black"/>
<path fill-rule="evenodd" clip-rule="evenodd" d="M100.5 46.9999C99.3995 46.9999 98.3995 46.3999 97.8995 45.3999C97.0995 43.9999 97.5995 42.1999 98.9995 41.3999C99.5995 41.0666 100.166 40.7332 100.7 40.3999C102.2 39.6999 104 40.1999 104.7 41.6999C105.5 43.0999 105 44.8999 103.5 45.6999C102.966 46.0332 102.433 46.3332 101.9 46.5999C101.433 46.8666 100.966 46.9999 100.5 46.9999ZM87.1995 55.2999C86.1995 55.2999 85.2995 54.8999 84.6995 54.0999C83.6995 52.6999 84.0995 50.8999 85.3995 49.8999C85.9329 49.4999 86.4662 49.1332 86.9995 48.7999C88.2995 47.8999 90.1995 48.1999 91.0995 49.5999C92.0995 50.9999 91.6995 52.7999 90.3995 53.7999C89.8662 54.1332 89.3662 54.4666 88.8995 54.7999C88.3995 55.1999 87.6995 55.2999 87.1995 55.2999ZM114.7 40.0999C113.5 40.0999 112.4 39.3999 111.9 38.2999C111.3 36.6999 112 34.9999 113.5 34.3999L114.5 33.9999C116 33.2999 117.7 34.0999 118.4 35.5999C119 37.0999 118.3 38.8999 116.7 39.4999L115.8 39.8999C115.4 40.0332 115.033 40.0999 114.7 40.0999ZM30.6995 137C30.4995 137 30.2662 136.967 29.9995 136.9C28.3995 136.5 27.3995 134.8 27.7995 133.2C35.1995 104.5 50.9995 78.8999 73.4995 59.2999C74.6995 58.1999 76.5995 58.2999 77.6995 59.5999C78.7995 60.7999 78.6995 62.6999 77.3995 63.7999C55.8995 82.5999 40.6995 107.2 33.5995 134.7C33.2995 136.1 32.0995 137 30.6995 137ZM30.7995 209.3C29.4995 209.3 28.2995 208.4 27.8995 207.1L27.6995 206.1C27.2995 204.5 28.2995 202.9 29.8995 202.5C31.4995 202.1 33.0995 203 33.4995 204.6L33.6995 205.6C34.1995 207.2 33.1995 208.8 31.5995 209.2C31.3329 209.267 31.0662 209.3 30.7995 209.3Z" fill="black"/>
<path fill-rule="evenodd" clip-rule="evenodd" d="M27.0002 185.9C28.7002 185.8 29.9002 184.3 29.8002 182.7L29.6002 181.3C29.5002 179.6 28.1002 178.4 26.4002 178.5C24.8002 178.7 23.5002 180.1 23.7002 181.8L23.8002 183.2C23.9002 184.8 25.2002 186 26.8002 186C26.8669 186 26.9335 185.967 27.0002 185.9ZM28.9002 197.9C30.5002 197.6 31.6002 196.1 31.3002 194.4L31.1002 193.1C30.8002 191.4 29.3002 190.3 27.6002 190.6C26.0002 190.8 24.9002 192.4 25.2002 194L25.4002 195.5C25.7002 196.9 26.9002 197.9 28.4002 197.9C28.5335 197.9 28.7002 197.9 28.9002 197.9ZM31.0002 147.3L31.2002 145.9C31.5002 144.2 30.4002 142.7 28.8002 142.4C27.2002 142.1 25.6002 143.2 25.3002 144.9L25.1002 146.3C24.8002 147.9 25.9002 149.5 27.6002 149.7C27.7335 149.767 27.9002 149.8 28.1002 149.8C29.5002 149.8 30.8002 148.7 31.0002 147.3ZM29.6002 159L29.7002 157.6C29.9002 156 28.6002 154.5 27.0002 154.4C25.3002 154.2 23.9002 155.5 23.8002 157.1L23.6002 158.6C23.5002 160.2 24.7002 161.6 26.4002 161.8C26.4669 161.8 26.5335 161.8 26.6002 161.8C28.2002 161.8 29.5002 160.6 29.6002 159ZM29.2002 170.9V169.9V169.5C29.2002 167.8 27.9002 166.5 26.2002 166.5C24.6002 166.5 23.2002 167.8 23.2002 169.4V169.9V170.9C23.2002 172.5 24.6002 173.9 26.2002 173.9C27.9002 173.9 29.2002 172.5 29.2002 170.9ZM33.4002 135.7L33.6002 134.7C34.0002 133.1 33.1002 131.5 31.5002 131.1C29.9002 130.6 28.2002 131.6 27.8002 133.2L27.6002 134.2C27.2002 135.8 28.2002 137.4 29.8002 137.8C30.0002 137.867 30.2335 137.9 30.5002 137.9C31.8002 137.9 33.1002 137 33.4002 135.7ZM52.7002 241.6L51.4002 239.4L42.4002 240.9L48.5002 234L47.3002 231.9L35.0002 236.4L36.2002 238.6L44.1002 235.5L38.6002 241.8L39.6002 243.6L47.9002 242.1L41.1002 247.3L42.4002 249.7L52.7002 241.6Z" fill="black"/>
<path d="M50.9998 255.7C49.4998 256.7 48.6998 258 47.5998 258.7C45.6998 260 43.7998 259.7 42.0998 257.1C40.7998 255.3 40.6998 253.5 42.0998 252.5C42.5998 252.2 43.1998 252 43.7998 252L44.2998 253.7C43.9998 253.7 43.7998 253.9 43.5998 254C42.9998 254.4 42.9998 255 43.6998 256.1C44.5998 257.3 45.3998 257.6 46.5998 256.8C47.1998 256.4 47.5998 256 48.0998 255.5C46.9664 255.433 46.0664 254.933 45.3998 254C44.3998 252.6 44.6998 251.2 45.9998 250.3C46.7998 249.8 47.6998 249.3 48.6998 248.6C49.7998 247.9 50.1998 247.5 50.6998 246.9L52.1998 248.3C51.8998 248.9 51.4998 249.5 50.2998 250.3C49.3998 250.9 48.2998 251.4 47.7998 251.8C47.2998 252.2 46.8998 252.7 47.2998 253.3C47.9998 254.3 49.7998 253.8 51.5998 252.6L53.8998 251L55.1998 252.8L50.9998 255.7Z" fill="black"/>
<path d="M71.9 266C71.7 266.7 71.2 267.7 70.3 268.5C68.1 270.5 65.2 271.5 60 272.4L58.5 270.7L61.3 266.4C59.6 267.1 57.5 267.5 55.9 267.8L54.5 266.1L59.4 258.1C60.1 257 60.6 256.1 60.9 255.2L63 256.2C62.9 257.2 62.5 257.9 61.6 259.3L57.8 265.2C60.1 264.7 61.8 264.1 63 263.4L63.5 262.6C64 261.8 64.8 260.6 65 259.8L67.1 260.8C66.9 261.8 66.5 262.7 65.7 263.9L61.9 269.6C64.7 269 67 268.1 68.4 266.9C69.2 266.2 69.7 265.3 69.9 264.9L71.9 266Z" fill="black"/>
<path d="M69.5998 278.3L69.2998 280.1C68.8998 280.2 67.1998 280.1 65.7998 278.7C64.0998 277.1 63.7998 274.9 65.8998 272.8C67.7998 270.8 70.4998 270.3 72.3998 272.1C73.9998 273.7 73.6998 275.3 72.6998 276.4C71.9998 277.1 71.1998 277.6 70.6998 277.7L67.3998 274.5C66.5998 275.3 66.2998 276.5 67.2998 277.4C68.0998 278.2 69.0998 278.3 69.5998 278.3ZM70.9998 273.5C70.3998 272.8 69.3998 272.9 68.5998 273.4L70.6998 275.4C70.8331 275.333 70.9665 275.2 71.0998 275C71.4998 274.6 71.5998 274 70.9998 273.5Z" fill="black"/>
<path d="M76.6001 287.5L74.9001 286.6C75.0001 286.3 75.1001 285.8 75.5001 285.2C74.5001 285.5 73.4001 285.4 72.4001 284.5C70.7001 283.1 70.9001 280.9 72.6001 278.9C74.5001 276.7 76.9001 276.3 78.6001 277.7C79.2001 278.3 79.6001 278.9 79.9001 279.4L81.2001 277.8C82.0001 276.9 82.4001 276.3 82.7001 275.6L84.6001 276.6C84.5001 277.1 84.2001 277.9 83.3001 279L78.1001 285.2C77.3001 286.1 76.9001 286.7 76.6001 287.5ZM77.2001 282.2L78.4001 280.8C78.4001 280.5 78.1001 279.9 77.6001 279.5C76.5001 278.6 75.2001 279.4 74.3001 280.3C73.5001 281.3 73.1001 282.5 74.0001 283.2C74.9001 284 76.3001 283.4 77.2001 282.2Z" fill="black"/>
<path d="M85.0005 293.7L83.2005 292.9C83.3005 292.6 83.4005 292.1 83.8005 291.5C82.8005 291.9 81.6005 291.8 80.6005 291.1C78.8005 289.8 78.9005 287.6 80.4005 285.5C82.1005 283.1 84.5005 282.5 86.3005 283.9C87.0005 284.4 87.4005 284.9 87.7005 285.4L88.9005 283.8C89.7005 282.8 90.0005 282.1 90.2005 281.5L92.2005 282.3C92.1005 282.8 91.9005 283.7 91.1005 284.8L86.3005 291.3C85.6005 292.3 85.3005 292.9 85.0005 293.7ZM85.3005 288.5L86.4005 286.9C86.3005 286.7 86.0005 286.1 85.4005 285.7C84.3005 284.9 83.0005 285.7 82.3005 286.8C81.5005 287.8 81.2005 289 82.1005 289.7C83.1005 290.4 84.4005 289.6 85.3005 288.5Z" fill="black"/>
<path d="M93.2003 284.7C93.8003 283.9 94.5003 284 95.3003 284.5C96.0003 284.9 96.4003 285.5 95.8003 286.4C95.3003 287.2 94.6003 287.1 93.9003 286.6C93.2003 286.1 92.7003 285.5 93.2003 284.7ZM92.0003 291.5C91.2003 292.7 90.5003 293.6 90.1003 294.2C89.8003 294.7 89.9003 295 90.2003 295.2C90.4003 295.333 90.667 295.433 91.0003 295.5L90.3003 297.2C89.7003 297.2 89.1003 297 88.5003 296.6C87.4003 295.8 87.1003 294.6 88.0003 293.3C88.6003 292.4 89.2003 291.6 90.0003 290.4L91.6003 287.9L93.5003 289.1L92.0003 291.5Z" fill="black"/>
<path d="M100.6 293.1C102.5 294.2 102.3 295.8 101.7 296.8C101.1 297.8 100.4 298.7 99.7002 299.9L98.4002 302.2L96.5002 301.1L97.5002 299.3C98.2002 298 99.0002 296.9 99.4002 296.2C99.8002 295.5 99.8002 294.9 99.2002 294.5C97.9002 293.8 96.3002 295.1 95.2002 296.9L93.7002 299.5L91.7002 298.3L94.7002 293.2C95.3002 292.1 95.6002 291.5 95.8002 290.8L97.5002 291.3C97.5002 291.6 97.3002 292.2 97.0002 292.9C98.1002 292.4 99.3002 292.4 100.6 293.1Z" fill="black"/>
<path fill-rule="evenodd" clip-rule="evenodd" d="M111.6 298.6C111.2 298.4 110.9 298.7 110.7 299.2L110.5 299.5C110.633 300.166 110.566 300.733 110.3 301.2C109.5 302.7 107.5 303.7 105.1 302.6C104.433 302.2 103.966 301.766 103.7 301.3C103.433 301.433 103.266 301.633 103.2 301.9C102.9 302.5 103 302.9 103.8 303.3C104.1 303.4 105 303.8 105.6 304.1C107.2 304.9 108.2 306.3 107.4 308C106.5 309.9 104.4 310.3 101.7 309C99.3996 307.9 98.4996 306.3 99.1996 304.8C99.6996 303.8 100.5 303.4 101.3 303.3C100.9 302.7 101 301.9 101.3 301.3C101.6 300.6 102.3 300 103 299.7C103 299.233 103.1 298.8 103.3 298.4C104.1 296.7 106.3 295.9 108.5 297C108.966 297.266 109.333 297.533 109.6 297.8C110.3 296.8 111.3 296.5 112.3 297C112.766 297.2 113.133 297.533 113.4 298L112.2 299.1C112.133 298.9 111.933 298.733 111.6 298.6ZM102.4 304.7C102 304.8 101.5 305 101.3 305.4C101 306.2 101.6 306.7 102.7 307.3C104 307.9 105 308 105.4 307.3C105.7 306.6 105.3 306.1 104.4 305.7C104.2 305.6 103.4 305.3 102.9 305C102.7 304.9 102.6 304.9 102.4 304.7ZM106 300.9C107.1 301.4 108 301.1 108.4 300.3C108.7 299.8 108.5 299.1 107.6 298.7C106.6 298.2 105.7 298.5 105.3 299.3C105 299.9 105.2 300.5 106 300.9ZM127.5 314.3C126.6 314.3 125.6 314.1 124.9 313.8C123.8 313.4 122.8 312.8 121.9 312.1C121 312.2 119.9 312 118.5 311.6C114.6 310.2 114.4 307.5 115 305.6C115.6 303.9 117.1 302.9 118.6 302.7C118.666 302.3 118.8 301.9 119 301.5C119.6 299.7 121.1 298.1 123.5 298.9C125.3 299.5 125.8 301.1 125.4 302.2C125 303.2 124.2 304.2 123.6 304.5L122.3 303.2C122.7 302.8 123.1 302.6 123.3 302.1C123.5 301.5 123.4 301 122.7 300.7C121.9 300.4 121.4 301.2 121 302.1C120.2 304.3 120.9 307.6 122.6 309.8C123.5 309.4 124 308.6 124.2 307.9C124.4 307.4 124.6 306.5 124.6 305.7L126.6 305.9C126.7 306.7 126.6 307.8 126.3 308.6C125.9 309.6 125.3 310.6 124.3 311.3C124.633 311.566 125 311.766 125.4 311.9C126.1 312.1 127 312.3 127.9 312.3L127.5 314.3ZM119.1 309.8C119.433 309.866 119.7 309.933 119.9 310C118.9 308.5 118.4 306.7 118.3 304.9C117.8 305.2 117.3 305.6 117.1 306.4C116.7 307.5 117 309 119.1 309.8ZM140.7 311.8L137 311L136.2 314.3L141.3 315.4L140.8 317.6L133.4 315.9L136.3 303.3L143.3 304.9L142.8 307.1L138.1 306L137.4 309L141.1 309.9L140.7 311.8Z" fill="black"/>
<path fill-rule="evenodd" clip-rule="evenodd" d="M147.9 310.3C148 310.6 148.2 311.4 148.1 312.1C147.9 313.2 147.1 314.7 146 316L145.6 312.2C145.4 311 145.1 310 144.6 309.2L142.6 310C142.9 310.7 143.1 311.5 143.3 312.8L144.2 318.2L146.6 318.5C148.9 316 150 314.3 150.3 312.4C150.5 311.2 150.2 310.2 150 309.9L147.9 310.3ZM154.8 317.8C153.5 317.7 153 316.6 153.1 315.5L157.8 316C158 315.6 158.4 314.6 158.5 313.7C158.6 312.2 157.9 310.7 155.6 310.5C153 310.2 151.2 312.3 150.9 315.1C150.6 318 152.1 319.5 154.5 319.8C156.5 320 157.8 319 158.1 318.7L157.2 317.1C156.8 317.5 155.9 317.9 154.8 317.8ZM156.4 313.6C156.4 313.8 156.366 314 156.3 314.2L153.4 313.9C153.7 313 154.5 312.3 155.4 312.4C156.2 312.5 156.5 313 156.4 313.6ZM162.4 312.7C162.3 311.9 162.2 311.4 162.1 311L160.3 311.4C160.5 312.1 160.5 312.8 160.5 314.1L160.2 320H162.5L162.7 317.1C162.7 315 163.6 313.1 165.1 313.2C165.8 313.2 166.1 313.7 166 314.5C166 315.3 165.8 316.6 165.8 318.2L165.7 320.2L168 320.3L168.1 317.7C168.1 316.3 168.3 315.2 168.4 313.9C168.4 312.8 167.9 311.3 165.6 311.2C164.2 311.1 163.1 311.8 162.4 312.7ZM173.7 309.3L171.4 309.9V311.5L169.7 311.6L169.8 313.6H171.4L171.5 314.8C171.5 316.1 171.4 317.1 171.4 317.7C171.4 319.6 172.6 320.5 174.2 320.4C175.5 320.4 176.5 319.8 177 319.2L176.1 317.6C175.7 318 175.2 318.3 174.6 318.3C174.066 318.3 173.8 317.933 173.8 317.2C173.8 316.6 173.8 316.1 173.8 314.8V313.5H176.4L176.3 311.4L173.7 311.5V309.3ZM183.5 319.7L185.8 319.4L185.3 315.2C186 315.2 186.2 315.2 186.7 315.1C189.7 314.8 191.3 312.5 190.9 309.5C190.6 306.4 188.2 305.8 185.9 306.1C184.6 306.2 183 306.7 182 307.2L183.5 319.7ZM188.6 309.9C188.8 311.7 187.9 312.7 186.4 312.9C185.9 313 185.6 313 185.1 313L184.7 308.7C185.2 308.5 185.6 308.4 186.1 308.3C187.4 308.2 188.4 308.4 188.6 309.9ZM194.8 310.6C194.533 309.933 194.3 309.466 194.1 309.2L192.5 310C192.8 310.6 193 311.3 193.3 312.8L194.3 318.3L196.5 317.9L195.8 314.3C195.5 312.4 196 310.9 196.9 310.8C197.3 310.7 197.5 311 197.6 311.3C197.6 311.5 197.6 311.8 197.5 312L199.4 312.1C199.5 311.6 199.6 310.9 199.5 310.3C199.3 309.1 198.2 308.5 197.1 308.7C196 308.9 195.2 309.7 194.8 310.6ZM205.6 316.3C208.5 315.6 209 313.2 208.5 310.9C207.9 308.5 206.3 306.7 203.5 307.3C200.6 308 200.2 310.4 200.8 312.8C201.4 315.1 202.8 317 205.6 316.3ZM205.2 314.4C203.9 314.7 203.3 313.4 203 312.2C202.7 311 202.7 309.6 203.9 309.2C205.3 308.9 205.9 310 206.2 311.4C206.6 312.7 206.5 314.1 205.2 314.4ZM217.1 303.5V301.9C216.566 301.766 216.066 301.766 215.6 301.9C214.5 302.2 214 303.1 214.3 304.3C213.833 304.3 213.366 304.366 212.9 304.5C210.6 305.3 209.5 307.3 210 309.1C210.2 309.566 210.433 309.933 210.7 310.2C210.4 311 210.4 311.8 210.6 312.5C210.8 313.2 211.3 313.8 211.9 314C211.5 314.6 211.2 315.5 211.5 316.5C212 318.1 213.8 318.6 216.2 317.9C219 317 220.3 315.2 219.6 313.3C219.1 311.4 217.3 311.1 215.6 311.6C215 311.8 214.1 312.2 213.8 312.3C212.9 312.5 212.6 312.3 212.4 311.7C212.333 311.5 212.333 311.266 212.4 311C212.866 311.133 213.5 311.1 214.3 310.9C216.7 310.1 217.6 308 217.1 306.4C216.9 305.8 216.566 305.333 216.1 305L216 304.6C215.8 304.1 215.8 303.7 216.3 303.5C216.566 303.433 216.833 303.433 217.1 303.5ZM212.1 308.4C211.9 307.6 212.4 306.7 213.4 306.3C214.3 306.1 214.9 306.4 215.1 307C215.3 307.8 214.9 308.7 213.8 309.1C212.9 309.3 212.3 309 212.1 308.4ZM214.4 314.2C214.9 314 215.6 313.7 215.9 313.6C216.8 313.4 217.4 313.4 217.7 314.1C217.9 314.8 217.1 315.5 215.7 316C214.6 316.3 213.7 316.3 213.5 315.6C213.4 315.1 213.5 314.7 213.7 314.3C214 314.3 214.1 314.2 214.4 314.2Z" fill="black"/>
<path fill-rule="evenodd" clip-rule="evenodd" d="M220.2 303.7C219.866 303.1 219.566 302.7 219.3 302.5L217.8 303.5C218.3 304.1 218.6 304.7 219.2 306.1L221.2 311.4L223.3 310.6L221.9 307.1C221.3 305.3 221.4 303.8 222.3 303.4C222.7 303.3 222.9 303.5 223.1 303.8C223.1 304 223.2 304.3 223.2 304.5L225 304.3C225.1 303.8 225 303.1 224.8 302.5C224.3 301.4 223.2 301 222.2 301.4C221.1 301.8 220.4 302.7 220.2 303.7ZM234.4 304.1C234.1 304.3 233.8 303.9 233.5 303.2C233.1 302.4 232.6 300.8 232.3 300.2C231.5 298.3 229.9 298.1 228.1 298.9C226.2 299.7 225.3 301.1 225.9 302.6C226.2 303.2 226.7 303.7 226.9 303.8L228.2 302.6C228 302.5 227.9 302.3 227.8 302.1C227.6 301.6 228 301 228.8 300.6C229.8 300.2 230.2 300.5 230.5 301.1L230.6 301.3C229.9 302.1 228.9 302.9 228.2 303.7C227.3 304.6 227 305.4 227.5 306.7C228.1 307.9 229.3 308.4 230.9 307.7C231.9 307.3 232.5 306.4 232.7 305.6C233.3 306.2 234.1 306.2 234.8 305.9C235.6 305.6 236 304.8 236 304.2L234.7 303.6C234.7 303.9 234.6 304 234.4 304.1ZM231.7 304.1C231.8 304.5 231.4 305.6 230.5 306C230 306.2 229.6 306 229.4 305.6C229.3 305.3 229.3 304.9 229.7 304.6C230.6 303.7 231 303.3 231.3 303C231.366 303.267 231.466 303.567 231.6 303.9L231.7 304.1Z" fill="black"/>
<path d="M242 291.7C243.8 290.7 245 291.7 245.6 292.7C246.2 293.8 246.6 294.8 247.3 296.1L248.5 298.3L246.5 299.4L245.6 297.7C244.8 296.3 244.3 295.1 243.8 294.4C243.5 293.7 243.1 293.4 242.5 293.7C241.4 294.3 241.7 296.3 242.7 298.2L244.1 300.8L242.1 301.9L241.2 300.2C240.4 298.8 239.9 297.6 239.4 296.8C239.1 296.2 238.7 295.8 238.1 296.1C237 296.8 237.3 298.8 238.3 300.7L239.7 303.2L237.7 304.4L234.9 299.2C234.2 298.1 233.8 297.5 233.3 297L234.6 295.8C234.9 296 235.3 296.4 235.8 297C235.9 295.9 236.4 294.8 237.5 294.2C238.7 293.6 239.6 293.9 240.3 294.4C240.4 293.3 240.9 292.3 242 291.7Z" fill="black"/>
<path d="M256.6 292.9L254.6 294.2L247.3 283.6L249.2 282.3L256.6 292.9Z" fill="black"/>
<path d="M257.3 281.2C259.1 279.8 260.5 280.6 261.2 281.5C261.9 282.5 262.5 283.5 263.4 284.6L264.9 286.6L263.1 288L261.9 286.5C261 285.2 260.3 284.1 259.7 283.4C259.3 282.8 258.8 282.6 258.1 283C257 283.9 257.5 285.9 258.8 287.6L260.6 289.9L258.8 291.4L255.2 286.7C254.4 285.6 253.9 285.2 253.4 284.8L254.5 283.3C254.8 283.5 255.3 283.9 255.8 284.4C255.8 283.3 256.2 282 257.3 281.2Z" fill="black"/>
<path d="M265.6 283.7C265.1 283.1 264.9 282.4 264.9 282L266.6 281.4C266.6 281.6 266.7 281.9 266.9 282.1C267.2 282.4 267.7 282.3 268.4 281.7C269 281.2 269.1 280.7 268.9 280.4C268.6 280 268 280.2 267 280.5C265.4 280.9 263.9 281.3 262.8 280.1C261.9 279 261.8 277.5 263.6 275.9C265.2 274.6 266.5 274.7 267.3 275.5C267.7 276 267.9 276.6 267.9 277L266.2 277.7C266.2 277.5 266.1 277.3 265.9 277.1C265.7 276.8 265.2 276.9 264.7 277.3C264.2 277.8 264.2 278.2 264.4 278.5C264.7 278.8 265.3 278.8 266.9 278.3C268.5 277.9 269.7 277.8 270.5 278.7C271.3 279.7 271.5 281.4 269.6 283.1C267.6 284.9 266.3 284.5 265.6 283.7Z" fill="black"/>
<path d="M278.6 273.8L277.7 275.3C277.4 275.2 276.9 275 276.4 274.6C276.6 275.9 276.2 276.9 275.4 277.7C274 279 272.6 278.5 271.7 277.6C270.9 276.7 270.5 276.1 269.4 275C268.5 274.1 268 273.7 267.4 273.4L268.4 271.7C269 271.8 269.7 272.2 270.6 273.1C271.6 274.1 272.3 275 273 275.6C273.4 276.1 273.9 276.3 274.4 275.8C275.4 274.7 274.2 273 272.6 271.4L270.8 269.5L272.4 267.9L276.5 272.1C277.4 273 278 273.5 278.6 273.8Z" fill="black"/>
<path d="M276.7 262.8C277.4 261.9 278.6 261.7 279.5 262.6C280 263 280.3 263.6 280.6 264.1L279 265.1C278.9 264.9 278.7 264.7 278.6 264.5C278.4 264.3 278 264.2 277.8 264.5C277.1 265.2 277.7 266.6 279.1 267.9L281.9 270.4L280.4 272.1L276.2 268.3C275.1 267.4 274.5 266.9 273.8 266.6L274.7 265C274.966 265.133 275.4 265.367 276 265.7C275.7 264.8 275.9 263.6 276.7 262.8Z" fill="black"/>
<path d="M288.899 259L290.299 258.9C290.499 259.5 290.499 260.4 289.999 261C289.499 261.6 288.799 261.9 287.999 261.7C288.199 262.5 287.999 263.5 287.299 264.4C286.299 265.8 284.899 265.9 283.899 265C282.799 264.2 282.599 263.3 282.999 262.1C283.399 261 283.9 259.9 284.1 258.9L283.899 258.7C283.399 258.3 282.899 258.2 282.299 259.1C281.699 259.8 281.499 260.5 281.999 260.8C282.199 261 282.4 261.1 282.6 261.1L281.999 262.8C281.699 262.7 281.1 262.5 280.6 262.1C279.3 261.1 279.499 259.5 280.799 257.8C281.999 256.3 283.5 255.7 285.1 257C285.7 257.5 286.8 258.6 287.6 259.2C288.2 259.7 288.499 259.9 288.799 259.6C288.899 259.4 288.899 259.3 288.899 259ZM286.2 260.7C286 260.5 285.766 260.267 285.499 260C285.399 260.5 285.199 261 284.799 262.2C284.599 262.6 284.699 263 284.999 263.2C285.399 263.5 285.8 263.5 286.1 263.1C286.8 262.3 286.699 261.2 286.399 260.8L286.2 260.7Z" fill="black"/>
<path d="M287.2 249.1C288.5 247.2 290.1 247.6 291 248.2C292 248.9 292.8 249.7 294 250.5L296.1 252L294.8 253.8L293.2 252.7C291.9 251.8 290.9 251 290.2 250.5C289.6 250.1 289 250 288.6 250.6C287.8 251.8 288.9 253.6 290.6 254.8L293 256.4L291.7 258.3L286.9 255C285.8 254.2 285.2 253.9 284.5 253.7L285.2 252C285.5 252.1 286.1 252.3 286.8 252.6C286.4 251.6 286.4 250.3 287.2 249.1Z" fill="black"/>
<path d="M300.1 243C300.3 243.6 300.7 245.2 299.6 247C298.4 249 296.2 249.7 293.9 248.3C291.8 247.1 290.3 244.3 291.8 241.9C292.6 240.4 294.2 240 295.5 240.8C296.2 241.2 296.7 241.8 296.9 242.2L295.5 243.5C295.4 243.3 295.1 242.9 294.7 242.7C294.2 242.4 293.7 242.5 293.3 243.1C292.8 244 293.8 245.6 294.9 246.2C296.3 247.1 297.4 246.8 298 245.7C298.6 244.8 298.4 243.6 298.3 243.1L300.1 243Z" fill="black"/>
<path fill-rule="evenodd" clip-rule="evenodd" d="M302.2 238.2C301.6 239.4 300.4 239.4 299.4 238.9L301.6 234.8C301.3 234.4 300.6 233.7 299.7 233.3C298.4 232.6 296.7 232.7 295.7 234.8C294.5 237.1 295.8 239.5 298.2 240.8C300.8 242.2 302.8 241.3 303.9 239.2C304.9 237.5 304.4 235.9 304.3 235.4L302.5 235.7C302.6 236.2 302.7 237.2 302.2 238.2ZM298.9 235.1C299.1 235.233 299.267 235.366 299.4 235.5L298 238C297.3 237.4 297 236.5 297.4 235.7C297.8 235 298.4 234.9 298.9 235.1ZM34.3002 213.3C31.2002 213.3 28.7002 215.8 28.7002 218.9C28.7002 221.9 31.2002 224.4 34.3002 224.4C37.3002 224.4 39.8002 221.9 39.8002 218.9C39.8002 215.8 37.3002 213.3 34.3002 213.3Z" fill="black"/>
<path fill-rule="evenodd" clip-rule="evenodd" d="M310.7 218.9C310.7 221.9 308.2 224.4 305.1 224.4C302.1 224.4 299.6 221.9 299.6 218.9C299.6 215.8 302.1 213.3 305.1 213.3C308.2 213.3 310.7 215.8 310.7 218.9ZM175.9 27.1999C175.9 30.1999 173.4 32.6999 170.4 32.6999C167.3 32.6999 164.8 30.1999 164.8 27.1999C164.8 24.0999 167.3 21.5999 170.4 21.5999C173.4 21.5999 175.9 24.0999 175.9 27.1999Z" fill="black"/>
<path d="M170.1 290C103.8 290 50 236.2 50 169.9C50 103.7 103.8 49.7998 170.1 49.7998C236.3 49.7998 290.2 103.7 290.2 169.9C290.2 236.2 236.3 290 170.1 290ZM170.1 53.7998C106 53.7998 54 105.9 54 169.9C54 234 106 286 170.1 286C234.1 286 286.2 234 286.2 169.9C286.2 105.9 234.1 53.7998 170.1 53.7998Z" fill="white"/>
<path d="M230.8 104.6C223.4 83.7 198.4 69.2 170 69.2C141.6 69.2 116.6 83.7 109.2 104.6L105.4 103.3C113.4 80.8 140 65.2 170 65.2C200 65.2 226.6 80.8 234.6 103.3L230.8 104.6Z" fill="white"/>
<path d="M264.9 126.6H260.1L259.8 125C257.4 113.9 245.5 105.8 231.5 105.8C217.5 105.8 205.6 113.9 203.2 125L202.8 126.6H198.7L198.3 125C195.9 113.9 184 105.8 170 105.8C156 105.8 144.1 113.9 141.7 125L141.4 126.6H137.2L136.8 125C134.4 113.9 122.5 105.8 108.5 105.8C94.4996 105.8 82.5996 113.9 80.1996 125L79.8996 126.6H75.0996L75.9996 124C87.5996 89.3 126.3 65.2 170 65.2C213.7 65.2 252.4 89.3 264 124L264.9 126.6ZM108.5 101.8C122.5 101.8 134.7 109.1 139.3 119.6C143.9 109.1 156.1 101.8 170 101.8C184 101.8 196.1 109.1 200.8 119.6C205.4 109.1 217.6 101.8 231.5 101.8C238.7 101.8 245.5 103.8 251 107.1C234.5 84.1 203.9 69.1 170 69.1C136.2 69.1 105.5 84.1 89.0996 107.1C94.5996 103.8 101.3 101.8 108.5 101.8Z" fill="white"/>
<path d="M170 141.1C168.9 141.1 168 140.2 168 139.1V60.8999C168 59.7999 168.9 58.8999 170 58.8999C171.1 58.8999 172 59.7999 172 60.8999V139.1C172 140.2 171.1 141.1 170 141.1Z" fill="white"/>
<path d="M169 135.7L144.2 115.4L146.8 112.3L171.6 132.6L169 135.7Z" fill="white"/>
<path fill-rule="evenodd" clip-rule="evenodd" d="M196.1 115.4L193.5 112.3L168.7 132.6L171.3 135.7L196.1 115.4ZM108.8 235.5C105.1 235.5 102.1 238.5 102.1 242.2C102.1 245.9 105.1 248.9 108.8 248.9C112.5 248.9 115.5 245.9 115.5 242.2C115.5 238.5 112.5 235.5 108.8 235.5ZM231.4 235.5C227.7 235.5 224.7 238.5 224.7 242.2C224.7 245.9 227.7 248.9 231.4 248.9C235.1 248.9 238.1 245.9 238.1 242.2C238.1 238.5 235.1 235.5 231.4 235.5Z" fill="white"/>
<path d="M170.6 275.5C170.267 275.5 169.933 275.4 169.6 275.2C168.7 274.7 168.3 273.5 168.8 272.5C172 266.7 173.8 260.1 174 253.6C174.2 245.2 171.8 239.1 170.5 235.8C168.2 230.1 165.9 224.1 159.8 219.8C157.2 217.9 152.9 215.6 147.2 215.2C144.3 215 139 214.6 134.2 218C129.6 221.3 128.1 226.1 127.7 227.7C127 230.1 125 236.6 128.9 241.9C132.6 247 138.9 247.4 140.8 247.4H140.9C145.4 247.4 149.1 245.9 151.6 243.1C153.7 240.8 156.7 235.5 154.3 230.4C152.7 226.8 148.7 223.4 144.5 224.3C140 225.2 138.2 230.1 138.1 230.3C137.7 231.3 136.6 231.8 135.5 231.5C134.5 231.1 134 229.9 134.3 228.9C134.6 228.2 137.2 221.7 143.7 220.4C150 219.1 155.6 223.6 158 228.8C161 235.3 158 242 154.6 245.8C151.2 249.5 146.5 251.4 140.8 251.4C138.4 251.4 130.5 250.8 125.7 244.2C120.7 237.3 123.1 229.2 123.8 226.5C124.4 224.6 126.1 218.8 131.8 214.8C137.8 210.5 144.3 211 147.4 211.2C154.1 211.6 159.1 214.3 162.1 216.5C169.1 221.5 171.8 228.3 174.2 234.4C175.5 237.6 178.2 244.5 178 253.7C177.8 260.9 175.8 268 172.3 274.4C172 275.1 171.3 275.5 170.6 275.5Z" fill="white"/>
<path fill-rule="evenodd" clip-rule="evenodd" d="M128.3 225C129.2 224.4 129.5 223.1 128.9 222.2C128.2 221.3 127 221 126.1 221.7C122 224.4 117.2 224.8 114.1 222.7C113.5 222.3 110.5 220.1 110.8 216.9C111 215.1 112.3 212.5 114.7 212.2C116.3 212.1 118 213 119 214.5C119.6 215.5 120.8 215.7 121.8 215.1C122.7 214.5 122.9 213.3 122.3 212.3C120.5 209.5 117.4 207.9 114.3 208.2C109.9 208.7 107.2 212.8 106.8 216.5C106.4 220.7 109.1 224.2 111.8 226C113.8 227.4 116.2 228.1 118.8 228.1C121.9 228.1 125.3 227 128.3 225ZM170.5 275.2C171.5 274.7 171.8 273.5 171.3 272.5C168.1 266.7 166.4 260.1 166.2 253.6C166 245.2 168.4 239.1 169.7 235.8C171.9 230.1 174.3 224.1 180.4 219.8C183 217.9 187.3 215.6 193 215.2C195.8 215 201.2 214.6 206 218C210.6 221.3 212 226.1 212.5 227.7C213.2 230.1 215.1 236.6 211.2 241.9C207.5 247 201.2 247.4 199.4 247.4H199.2C194.8 247.4 191.1 245.9 188.5 243.1C186.4 240.8 183.5 235.5 185.8 230.4C187.4 226.8 191.5 223.4 195.7 224.3C200.1 225.2 202 230.1 202.1 230.3C202.4 231.3 203.6 231.8 204.6 231.5C205.7 231.1 206.2 229.9 205.8 228.9C205.5 228.2 202.9 221.7 196.5 220.4C190.2 219.1 184.5 223.6 182.2 228.8C179.2 235.3 182.1 242 185.6 245.8C188.9 249.5 193.7 251.5 199.4 251.4C201.7 251.4 209.7 250.8 214.5 244.2C219.5 237.3 217.1 229.2 216.3 226.5C215.7 224.6 214 218.8 208.3 214.8C202.3 210.5 195.8 211 192.7 211.2C186.1 211.6 181.1 214.3 178 216.5C171 221.5 168.3 228.3 165.9 234.4C164.6 237.6 161.9 244.5 162.2 253.7C162.4 260.9 164.3 268 167.8 274.4C168.2 275.1 168.9 275.5 169.6 275.5C169.934 275.5 170.234 275.4 170.5 275.2Z" fill="white"/>
<path fill-rule="evenodd" clip-rule="evenodd" d="M228.3 226C231 224.2 233.7 220.7 233.3 216.5C233 212.8 230.2 208.7 225.8 208.2C222.8 207.9 219.7 209.5 217.8 212.3C217.2 213.3 217.5 214.5 218.4 215.1C219.3 215.7 220.5 215.5 221.1 214.5C222.2 213 223.9 212 225.4 212.2C227.8 212.5 229.2 215.1 229.3 216.9C229.7 220.1 226.7 222.3 226.1 222.7C223 224.8 218.1 224.4 214 221.7C213.1 221 211.9 221.3 211.3 222.2C210.7 223.1 210.9 224.4 211.8 225C214.9 227 218.2 228.1 221.4 228.1C223.9 228.1 226.3 227.4 228.3 226ZM157.8 172.9C151.3 178.7 149.6 186.4 153.1 193.6C156.1 199.9 164.9 203.9 172.3 202.6C177.4 201.7 181.5 199.2 185.1 195.7C192.6 201.2 200.5 201 202.5 195.1C194.6 195.5 189.3 190.1 189.3 190.1L194.7 176.7C195.1 175.8 196 175.1 197 175.1H200.5V171.1H183.8V175.1H187.5C188.6 175.1 189.3 176.3 188.9 177.3L184.5 186.1C184.5 186.1 180.3 181.1 178.2 178.7C176.1 176.3 173.7 173.8 171.5 171.3C173.4 170 175.3 168.7 177 167.4C183.1 162.4 183.4 155.1 177.8 149.6C174.4 146.3 167.5 145.4 163 147.7C158.2 150.1 156 157.1 158 161.8C159.6 165.5 159.9 165.7 162.1 169.2C161.2 169.9 159.1 171.7 157.8 172.9ZM165.7 195.6C161.4 194 158.4 190.8 158.3 186.1C158.1 180.9 161.8 177.8 165.9 174.9C170.9 180.4 175.4 185.4 180.4 191C175.9 194.8 171.4 197.6 165.7 195.6ZM174.9 156.6C175.6 158.8 175.2 160.4 173.7 161.8C172.1 163.3 170.5 164.1 168.1 165.7C167.5 164.7 163.7 159.5 164.2 156.9C164.7 154.8 167.2 153 169.9 152.9C171.8 153 173.9 154 174.9 156.6Z" fill="white"/>
<path fill-rule="evenodd" clip-rule="evenodd" d="M222.7 177.9C222.7 177.9 237.2 175.9 240.5 181.2V168.6C236.6 173.3 222.4 171.5 222.4 171.5V157.1C228.6 157.1 234.7 157.1 240.8 157.1C243.3 157 244.9 157.1 246.8 159.6V149.4C246.8 149.4 246.1 150.7 240.5 150.7C237.5 150.7 215 150.7 211.9 150.7C215.6 152.3 215.3 155.4 215.3 158.6C215.2 170 215.2 181.5 215.3 193C215.3 195.9 214.4 197.7 211.9 199C214.1 198.9 245.1 197.8 250.5 201.1V188.2C249.4 189.6 248.8 190.5 248.1 191.1C247.5 191.6 246.8 192.3 246.1 192.3C238.4 192.4 222.7 192.3 222.7 192.3V177.9ZM134 152C137.6 154 137.6 154 136.1 158C133.967 163.8 131.8 169.567 129.6 175.3C128.8 177.5 128 179.6 127.1 182C122.5 171.1 118.1 160.7 113.5 149.7C108.9 160.7 104.5 171.1 99.9004 182C99.0004 179.6 98.1004 177.5 97.3004 175.3C95.1671 169.567 93.0337 163.8 90.9004 158C89.4004 154 89.4004 154 93.0004 152C93.4004 151.8 93.7004 151.5 94.7004 151H77.9004C83.2004 152.3 99.9004 199 99.9004 199C99.9004 199 109.1 178.7 113.4 168.3C113.4 168.367 113.434 168.433 113.5 168.5C113.5 168.433 113.534 168.367 113.6 168.3C117.9 178.7 127.1 199 127.1 199C127.1 199 143.8 152.3 149.1 151H132.3C133.2 151.5 133.6 151.8 134 152Z" fill="white"/>
</g>
</g>
<defs>
<clipPath id="clip0_210_8919">
<rect width="340" height="340" fill="white"/>
</clipPath>
</defs>
</svg>
